<svg width="18" height="18" viewBox="0 0 18 18" fill="none" xmlns="http://www.w3.org/2000/svg">
<g clip-path="url(#clip0_4_2871)">
<path d="M7.45283 11.625C7.38587 11.3654 7.25058 11.1286 7.06104 10.939C6.8715 10.7495 6.63463 10.6142 6.37508 10.5473L1.77383 9.36075C1.69533 9.33847 1.62623 9.29119 1.57704 9.22609C1.52784 9.16098 1.50122 9.08161 1.50122 9C1.50122 8.9184 1.52784 8.83902 1.57704 8.77392C1.62623 8.70881 1.69533 8.66153 1.77383 8.63925L6.37508 7.452C6.63454 7.38511 6.87135 7.24993 7.06088 7.06053C7.25041 6.87113 7.38575 6.63442 7.45283 6.375L8.63933 1.77375C8.66138 1.69494 8.70862 1.62551 8.77382 1.57605C8.83902 1.52659 8.91861 1.49982 9.00045 1.49982C9.08229 1.49982 9.16189 1.52659 9.22709 1.57605C9.29229 1.62551 9.33952 1.69494 9.36158 1.77375L10.5473 6.375C10.6143 6.63456 10.7496 6.87143 10.9391 7.06097C11.1287 7.25051 11.3655 7.38579 11.6251 7.45275L16.2263 8.6385C16.3055 8.66033 16.3752 8.70751 16.425 8.77281C16.4747 8.83811 16.5016 8.91792 16.5016 9C16.5016 9.08208 16.4747 9.16189 16.425 9.22719C16.3752 9.2925 16.3055 9.33968 16.2263 9.3615L11.6251 10.5473C11.3655 10.6142 11.1287 10.7495 10.9391 10.939C10.7496 11.1286 10.6143 11.3654 10.5473 11.625L9.36083 16.2263C9.33877 16.3051 9.29154 16.3745 9.22634 16.424C9.16114 16.4734 9.08154 16.5002 8.9997 16.5002C8.91786 16.5002 8.83827 16.4734 8.77307 16.424C8.70787 16.3745 8.66063 16.3051 8.63858 16.2263L7.45283 11.625Z" stroke="#3E53AA" stroke-width="1.6" stroke-linecap="round" stroke-linejoin="round"/>
<path d="M15 2.25V5.25" stroke="#3E53AA" stroke-width="1.6" stroke-linecap="round" stroke-linejoin="round"/>
<path d="M16.5 3.75H13.5" stroke="#3E53AA" stroke-width="1.6" stroke-linecap="round" stroke-linejoin="round"/>
<path d="M3 12.75V14.25" stroke="#3E53AA" stroke-width="1.6" stroke-linecap="round" stroke-linejoin="round"/>
<path d="M3.75 13.5H2.25" stroke="#3E53AA" stroke-width="1.6" stroke-linecap="round" stroke-linejoin="round"/>
</g>
<defs>
<clipPath id="clip0_4_2871">
<rect width="18" height="18" fill="white"/>
</clipPath>
</defs>
</svg>
