<svg width="12" height="12" viewBox="0 0 12 12" fill="none" xmlns="http://www.w3.org/2000/svg">
<path d="M9 7L11 9L9 11" stroke="white" stroke-linecap="round" stroke-linejoin="round"/>
<path d="M9 1L11 3L9 5" stroke="white" stroke-linecap="round" stroke-linejoin="round"/>
<path d="M1 8.99999H1.9865C2.30975 9.00219 2.62871 8.92602 2.91607 8.77798C3.20344 8.62995 3.45064 8.41446 3.6365 8.14999L6.3635 3.84999C6.54936 3.58551 6.79656 3.37003 7.08393 3.22199C7.37129 3.07395 7.69026 2.99778 8.0135 2.99999H11" stroke="white" stroke-linecap="round" stroke-linejoin="round"/>
<path d="M1 2.99999H1.986C2.35873 2.99739 2.72477 3.09901 3.04282 3.29338C3.36087 3.48774 3.61828 3.76712 3.786 4.09999" stroke="white" stroke-linecap="round" stroke-linejoin="round"/>
<path d="M10.9999 9H7.9794C7.65169 8.99666 7.32981 8.91283 7.0421 8.7559C6.75438 8.59896 6.50964 8.37372 6.3294 8.1L6.1499 7.875" stroke="white" stroke-linecap="round" stroke-linejoin="round"/>
</svg>
