<svg width="290" height="290" viewBox="0 0 290 290" fill="none" xmlns="http://www.w3.org/2000/svg">
<path d="M72.5 253.75C92.5203 253.75 108.75 237.52 108.75 217.5C108.75 197.48 92.5203 181.25 72.5 181.25C52.4797 181.25 36.25 197.48 36.25 217.5C36.25 237.52 52.4797 253.75 72.5 253.75Z" fill="#494461" stroke="#494461" stroke-width="24.1667" stroke-linecap="round" stroke-linejoin="round"/>
<path d="M217.5 241.667C237.52 241.667 253.75 225.437 253.75 205.417C253.75 185.396 237.52 169.167 217.5 169.167C197.48 169.167 181.25 185.396 181.25 205.417C181.25 225.437 197.48 241.667 217.5 241.667Z" fill="#494461" stroke="#494461" stroke-width="24.1667" stroke-linecap="round" stroke-linejoin="round"/>
<path d="M253.75 36.25L108.75 72.5V120.833L253.75 84.5833V36.25Z" fill="#494461"/>
<path d="M108.75 217.5V120.833M108.75 120.833V72.5L253.75 36.25V84.5833M108.75 120.833L253.75 84.5833M253.75 205.417V84.5833" stroke="#494461" stroke-width="24.1667" stroke-linecap="round" stroke-linejoin="round"/>
</svg>
